<svg width="13" height="14" viewBox="0 0 13 14" fill="none" xmlns="http://www.w3.org/2000/svg">
<path d="M6.50002 10.25L4.02596 6.75625C3.621 6.27812 3.36021 5.69478 3.27397 5.07417C3.18773 4.45355 3.27958 3.82121 3.53882 3.25078C3.79807 2.68035 4.21405 2.19531 4.7383 1.85216C5.26255 1.509 5.87351 1.32185 6.50002 1.3125C7.36848 1.32108 8.19814 1.67349 8.80729 2.29254C9.41644 2.9116 9.75544 3.74683 9.75002 4.61531C9.75035 5.37294 9.49242 6.10805 9.01877 6.69938L6.50002 10.25ZM6.50002 2.125C5.84671 2.1325 5.22308 2.39897 4.76607 2.86588C4.30905 3.33279 4.05602 3.96199 4.06252 4.61531C4.06559 5.21155 4.28008 5.78737 4.66783 6.24031L6.50002 8.83625L8.38096 6.1875C8.73849 5.74121 8.93463 5.18715 8.93752 4.61531C8.94402 3.96199 8.69098 3.33279 8.23397 2.86588C7.77696 2.39897 7.15333 2.1325 6.50002 2.125Z" fill="#1C6A28" stroke="#1C6A28" stroke-width="0.5"/>
<path d="M6.5 4.96875C6.94873 4.96875 7.3125 4.60498 7.3125 4.15625C7.3125 3.70752 6.94873 3.34375 6.5 3.34375C6.05127 3.34375 5.6875 3.70752 5.6875 4.15625C5.6875 4.60498 6.05127 4.96875 6.5 4.96875Z" fill="#1C6A28"/>
<path d="M11.375 5.375H10.5625V6.1875H11.375V11.875H1.625V6.1875H2.4375V5.375H1.625C1.40951 5.375 1.20285 5.4606 1.05048 5.61298C0.898102 5.76535 0.8125 5.97201 0.8125 6.1875V11.875C0.8125 12.0905 0.898102 12.2972 1.05048 12.4495C1.20285 12.6019 1.40951 12.6875 1.625 12.6875H11.375C11.5905 12.6875 11.7972 12.6019 11.9495 12.4495C12.1019 12.2972 12.1875 12.0905 12.1875 11.875V6.1875C12.1875 5.97201 12.1019 5.76535 11.9495 5.61298C11.7972 5.4606 11.5905 5.375 11.375 5.375Z" fill="#1C6A28" stroke="#1C6A28" stroke-width="0.5"/>
</svg>
