<svg width="24" height="25" viewBox="0 0 24 25" fill="none" xmlns="http://www.w3.org/2000/svg">
<path d="M8 10C7.66848 10 7.35054 10.1317 7.11612 10.3661C6.8817 10.6005 6.75 10.9185 6.75 11.25C6.75 11.5815 6.8817 11.8995 7.11612 12.1339C7.35054 12.3683 7.66848 12.5 8 12.5C8.33152 12.5 8.64946 12.3683 8.88388 12.1339C9.1183 11.8995 9.25 11.5815 9.25 11.25C9.25 10.9185 9.1183 10.6005 8.88388 10.3661C8.64946 10.1317 8.33152 10 8 10ZM12 10C11.6685 10 11.3505 10.1317 11.1161 10.3661C10.8817 10.6005 10.75 10.9185 10.75 11.25C10.75 11.5815 10.8817 11.8995 11.1161 12.1339C11.3505 12.3683 11.6685 12.5 12 12.5C12.3315 12.5 12.6495 12.3683 12.8839 12.1339C13.1183 11.8995 13.25 11.5815 13.25 11.25C13.25 10.9185 13.1183 10.6005 12.8839 10.3661C12.6495 10.1317 12.3315 10 12 10ZM14.75 11.25C14.75 10.9185 14.8817 10.6005 15.1161 10.3661C15.3505 10.1317 15.6685 10 16 10C16.3315 10 16.6495 10.1317 16.8839 10.3661C17.1183 10.6005 17.25 10.9185 17.25 11.25C17.25 11.5815 17.1183 11.8995 16.8839 12.1339C16.6495 12.3683 16.3315 12.5 16 12.5C15.6685 12.5 15.3505 12.3683 15.1161 12.1339C14.8817 11.8995 14.75 11.5815 14.75 11.25Z" fill="black"/>
<path fill-rule="evenodd" clip-rule="evenodd" d="M16.1 5.09304C13.4061 4.86337 10.6981 4.85 8.002 5.05304L7.809 5.06804C6.56941 5.16158 5.41091 5.71997 4.56552 6.63138C3.72013 7.54278 3.25026 8.73992 3.25 9.98304V18.5C3.25011 18.6297 3.28384 18.7571 3.34788 18.8698C3.41193 18.9826 3.5041 19.0768 3.61541 19.1433C3.72673 19.2097 3.85337 19.2462 3.983 19.2492C4.11262 19.2521 4.24079 19.2214 4.355 19.16L8.265 17.059C8.44728 16.961 8.65105 16.9098 8.858 16.91H17.834C18.966 16.91 19.936 16.1 20.139 14.987C20.551 12.73 20.583 10.42 20.235 8.15204L20.133 7.48304C20.0423 6.892 19.7556 6.34861 19.3189 5.94018C18.8821 5.53174 18.3208 5.28199 17.725 5.23104L16.1 5.09304ZM8.116 6.54904C10.7321 6.35131 13.3599 6.36402 15.974 6.58704L17.598 6.72604C18.134 6.77204 18.57 7.17904 18.651 7.71104L18.754 8.37904C19.0755 10.4824 19.045 12.6246 18.664 14.718C18.6292 14.9124 18.527 15.0883 18.3754 15.2149C18.2238 15.3414 18.0325 15.4105 17.835 15.41H8.858C8.40357 15.4101 7.95623 15.5228 7.556 15.738L4.75 17.246V9.98304C4.75005 9.11821 5.07679 8.28533 5.66479 7.65116C6.25279 7.01699 7.05865 6.62834 7.921 6.56304L8.116 6.54904Z" fill="black"/>
</svg>
