<svg width="21" height="22" viewBox="0 0 21 22" fill="none" xmlns="http://www.w3.org/2000/svg">
<path d="M6.99038 4.43998L13.3849 10.9999L6.99038 17.5597C6.8759 17.6769 6.8118 17.8343 6.8118 17.9981C6.8118 18.1619 6.8759 18.3193 6.99038 18.4365C7.04599 18.4932 7.11235 18.5383 7.1856 18.5691C7.25885 18.5999 7.3375 18.6157 7.41695 18.6157C7.4964 18.6157 7.57505 18.5999 7.64829 18.5691C7.72154 18.5383 7.78791 18.4932 7.84351 18.4365L14.6475 11.4579C14.767 11.3354 14.8338 11.171 14.8338 10.9999C14.8338 10.8287 14.767 10.6643 14.6475 10.5418L7.84482 3.56323C7.78918 3.50608 7.72265 3.46065 7.64916 3.42964C7.57567 3.39862 7.49671 3.38264 7.41695 3.38264C7.33718 3.38264 7.25822 3.39862 7.18473 3.42964C7.11125 3.46065 7.04472 3.50608 6.98907 3.56323C6.87458 3.68043 6.81049 3.83777 6.81049 4.0016C6.81049 4.16544 6.87458 4.32278 6.98907 4.43998H6.99038Z" fill="black"/>
</svg>
