<svg width="18" height="18" viewBox="0 0 18 18" fill="none" xmlns="http://www.w3.org/2000/svg">
<path d="M14.4518 3.375H14.7027C14.836 3.37479 14.9651 3.42196 15.0669 3.50809C15.1687 3.59422 15.2366 3.71371 15.2584 3.84525L15.6331 6.09525C15.6464 6.1758 15.6421 6.25829 15.6204 6.33701C15.5987 6.41572 15.5602 6.48877 15.5074 6.55107C15.4546 6.61338 15.3889 6.66344 15.3148 6.6978C15.2407 6.73215 15.1601 6.74996 15.0784 6.75H14.2111L13.5248 16.353C13.5146 16.4949 13.451 16.6276 13.3468 16.7244C13.2426 16.8213 13.1057 16.8751 12.9634 16.875H5.01643C4.874 16.8754 4.73674 16.8217 4.63234 16.7248C4.52794 16.6279 4.46418 16.4951 4.45393 16.353L3.76993 6.75H2.90593C2.82428 6.74996 2.74361 6.73215 2.66954 6.6978C2.59546 6.66344 2.52976 6.61338 2.47698 6.55107C2.4242 6.48877 2.38562 6.41572 2.36392 6.33701C2.34222 6.25829 2.33791 6.1758 2.3513 6.09525L2.72593 3.84525C2.7478 3.71371 2.81568 3.59422 2.91747 3.50809C3.01926 3.42196 3.14834 3.37479 3.28168 3.375H3.52805L3.40993 1.728C3.40436 1.65089 3.41475 1.57346 3.44045 1.50055C3.46614 1.42764 3.50659 1.3608 3.55927 1.30422C3.61194 1.24763 3.67572 1.20251 3.74661 1.17168C3.81751 1.14084 3.894 1.12495 3.97131 1.125H14.0086C14.0859 1.12495 14.1624 1.14084 14.2332 1.17168C14.3041 1.20251 14.3679 1.24763 14.4206 1.30422C14.4733 1.3608 14.5137 1.42764 14.5394 1.50055C14.5651 1.57346 14.5755 1.65089 14.5699 1.728L14.4518 3.375ZM13.3246 3.375L13.4044 2.25H4.57543L4.65531 3.375H13.3246ZM3.68893 5.625H14.4147L14.2268 4.5H3.75756L3.56968 5.625H3.68893ZM4.89718 6.75L5.53956 15.75H12.4403L13.0827 6.75H4.89718Z" fill="black"/>
</svg>
