<svg width="18" height="16" viewBox="0 0 18 16" fill="none" xmlns="http://www.w3.org/2000/svg">
<path d="M9 6.125C13.1421 6.125 16.5 5.11764 16.5 3.875C16.5 2.63236 13.1421 1.625 9 1.625C4.85786 1.625 1.5 2.63236 1.5 3.875C1.5 5.11764 4.85786 6.125 9 6.125Z" stroke="black" stroke-width="1.5" stroke-linecap="round" stroke-linejoin="round"/>
<path d="M9 12.125C9.9975 12.125 10.5548 12.6935 10.8143 13.187C10.8745 13.3044 10.8903 13.4397 10.8588 13.5679C10.8272 13.696 10.7504 13.8085 10.6425 13.8845C10.1563 14.2084 9.5842 14.3792 9 14.375C8.379 14.375 7.8075 14.1913 7.3575 13.8838C7.2496 13.8077 7.17281 13.6953 7.14125 13.5671C7.10969 13.4389 7.12549 13.3037 7.18575 13.1863C7.44525 12.695 8.0025 12.125 9 12.125ZM9 12.125V6.125" stroke="black" stroke-width="1.5" stroke-linecap="round" stroke-linejoin="round"/>
</svg>
