<svg width="35" height="36" viewBox="0 0 35 36" fill="none" xmlns="http://www.w3.org/2000/svg">
<path d="M28.3471 30.8452L19.3554 21.8536C18.6418 22.4245 17.8211 22.8764 16.8934 23.2094C15.9657 23.5425 14.9785 23.709 13.9319 23.709C11.339 23.709 9.14488 22.8108 7.3494 21.0143C5.55392 19.2179 4.65571 17.0237 4.65476 14.4319C4.6538 11.84 5.55202 9.64583 7.3494 7.8494C9.14678 6.05297 11.3409 5.15475 13.9319 5.15475C16.5228 5.15475 18.7174 6.05297 20.5158 7.8494C22.3141 9.64583 23.2118 11.84 23.209 14.4319C23.209 15.4785 23.0425 16.4657 22.7094 17.3934C22.3764 18.3211 21.9245 19.1418 21.3536 19.8554L30.3452 28.8471L28.3471 30.8452ZM13.9319 20.8545C15.7159 20.8545 17.2326 20.2303 18.4819 18.9819C19.7313 17.7336 20.3554 16.2169 20.3545 14.4319C20.3535 12.6469 19.7293 11.1306 18.4819 9.88323C17.2345 8.63581 15.7178 8.01115 13.9319 8.00925C12.1459 8.00735 10.6297 8.63201 9.38323 9.88323C8.13677 11.1344 7.51211 12.6507 7.50925 14.4319C7.5064 16.2131 8.13106 17.7298 9.38323 18.9819C10.6354 20.2341 12.1516 20.8583 13.9319 20.8545Z" fill="#5C5B5B"/>
</svg>
