<svg width="14" height="14" viewBox="0 0 14 14" fill="none" xmlns="http://www.w3.org/2000/svg">
<path d="M6.75 1.125C6.01131 1.125 5.27986 1.27049 4.59741 1.55318C3.91495 1.83586 3.29485 2.25019 2.77252 2.77252C1.71763 3.82742 1.125 5.25816 1.125 6.75C1.125 8.24184 1.71763 9.67258 2.77252 10.7275C3.29485 11.2498 3.91495 11.6641 4.59741 11.9468C5.27986 12.2295 6.01131 12.375 6.75 12.375C8.24184 12.375 9.67258 11.7824 10.7275 10.7275C11.7824 9.67258 12.375 8.24184 12.375 6.75C12.375 6.01131 12.2295 5.27986 11.9468 4.59741C11.6641 3.91495 11.2498 3.29485 10.7275 2.77252C10.2051 2.25019 9.58505 1.83586 8.90259 1.55318C8.22014 1.27049 7.48868 1.125 6.75 1.125ZM9.1125 9.1125L6.1875 7.3125V3.9375H7.03125V6.8625L9.5625 8.38125L9.1125 9.1125Z" fill="#1C6A28"/>
</svg>
