<svg width="19" height="20" viewBox="0 0 19 20" fill="none" xmlns="http://www.w3.org/2000/svg">
<path d="M9.5 0.75C14.3326 0.75 18.25 4.66738 18.25 9.5C18.25 14.3326 14.3326 18.25 9.5 18.25C4.66738 18.25 0.75 14.3326 0.75 9.5C0.75 4.66738 4.66738 0.75 9.5 0.75ZM9.5 2.5C7.64348 2.5 5.86301 3.2375 4.55025 4.55025C3.2375 5.86301 2.5 7.64348 2.5 9.5C2.5 11.3565 3.2375 13.137 4.55025 14.4497C5.86301 15.7625 7.64348 16.5 9.5 16.5C11.3565 16.5 13.137 15.7625 14.4497 14.4497C15.7625 13.137 16.5 11.3565 16.5 9.5C16.5 7.64348 15.7625 5.86301 14.4497 4.55025C13.137 3.2375 11.3565 2.5 9.5 2.5ZM12.1512 6.66237C12.2054 6.44582 12.3402 6.25813 12.5281 6.13772C12.7161 6.01731 12.943 5.97328 13.1623 6.01465C13.3816 6.05601 13.5769 6.17964 13.7081 6.36024C13.8393 6.54083 13.8965 6.76474 13.868 6.98612L13.8487 7.08763L13.6825 7.75H13.875C14.098 7.75025 14.3125 7.83564 14.4747 7.98874C14.6369 8.14184 14.7345 8.35108 14.7475 8.57372C14.7606 8.79636 14.6882 9.01558 14.545 9.1866C14.4019 9.35763 14.1988 9.46753 13.9774 9.49388L13.875 9.5H13.245L13.0263 10.375H13.875C14.098 10.3752 14.3125 10.4606 14.4747 10.6137C14.6369 10.7668 14.7345 10.9761 14.7475 11.1987C14.7606 11.4214 14.6882 11.6406 14.545 11.8116C14.4019 11.9826 14.1988 12.0925 13.9774 12.1189L13.875 12.125H12.5887L12.1714 13.7962C11.9474 14.6923 10.732 14.7745 10.3663 13.9713L10.3251 13.8663L9.5 11.3917L8.67488 13.8663C8.38263 14.7439 7.16463 14.7325 6.861 13.9039L6.82862 13.7954L6.41037 12.125H5.125C4.90198 12.1248 4.68747 12.0394 4.5253 11.8863C4.36313 11.7332 4.26554 11.5239 4.25247 11.3013C4.2394 11.0786 4.31184 10.8594 4.45498 10.6884C4.59812 10.5174 4.80117 10.4075 5.02262 10.3811L5.125 10.375H5.97375L5.755 9.5H5.125C4.90198 9.49975 4.68747 9.41436 4.5253 9.26126C4.36313 9.10816 4.26554 8.89892 4.25247 8.67628C4.2394 8.45364 4.31184 8.23442 4.45498 8.0634C4.59812 7.89237 4.80117 7.78247 5.02262 7.75612L5.125 7.75H5.3175L5.15125 7.08763C5.09754 6.87127 5.12844 6.64257 5.23764 6.44822C5.34683 6.25387 5.52609 6.10853 5.73881 6.04186C5.95154 5.9752 6.18168 5.99224 6.38227 6.08951C6.58285 6.18678 6.73875 6.35694 6.81813 6.56525L6.84875 6.66237L7.86987 10.7477L8.66962 8.3485C8.72483 8.18232 8.82864 8.03652 8.96761 7.92997C9.10658 7.82342 9.27432 7.76102 9.44914 7.75085C9.62396 7.74067 9.79781 7.78318 9.94821 7.87288C10.0986 7.96258 10.2186 8.09535 10.2928 8.254L10.3304 8.3485L11.1301 10.7477L12.1512 6.66237Z" fill="black"/>
</svg>
