<svg width="20" height="21" viewBox="0 0 20 21" fill="none" xmlns="http://www.w3.org/2000/svg">
<path d="M11.6667 8.83335L9.16671 11.3334M16.9067 3.02585C16.9858 2.99857 17.0709 2.99407 17.1525 3.01289C17.234 3.03171 17.3085 3.07308 17.3676 3.13228C17.4267 3.19147 17.468 3.2661 17.4867 3.34763C17.5054 3.42917 17.5008 3.51432 17.4734 3.59335L12.5367 17.7017C12.5072 17.786 12.453 17.8595 12.3811 17.9127C12.3093 17.9658 12.2232 17.9962 12.1339 17.9998C12.0446 18.0034 11.9563 17.98 11.8804 17.9328C11.8045 17.8856 11.7446 17.8167 11.7084 17.735L9.02588 11.7C8.98075 11.5997 8.90041 11.5193 8.80005 11.4742L2.76505 8.79085C2.68363 8.7545 2.61498 8.69457 2.56797 8.6188C2.52096 8.54303 2.49775 8.4549 2.50134 8.36581C2.50493 8.27671 2.53515 8.19074 2.5881 8.119C2.64105 8.04726 2.7143 7.99304 2.79838 7.96335L16.9067 3.02585Z" stroke="black" stroke-width="1.5" stroke-linecap="round" stroke-linejoin="round"/>
</svg>
