<svg width="15" height="16" viewBox="0 0 15 16" fill="none" xmlns="http://www.w3.org/2000/svg">
<path d="M2.03125 10.2031V5.26312C2.03125 5.01625 2.03125 4.80313 2.04562 4.6275C2.0553 4.43783 2.10245 4.25196 2.18437 4.08063C2.31924 3.81579 2.53454 3.60049 2.79938 3.46562C2.97071 3.3837 3.15658 3.33655 3.34625 3.32687C3.52125 3.3125 3.735 3.3125 3.98187 3.3125H11.0187C11.2656 3.3125 11.4787 3.3125 11.6544 3.32687C11.84 3.34187 12.0244 3.37562 12.2013 3.46562C12.4662 3.60062 12.6813 3.81563 12.8162 4.08063C12.9062 4.2575 12.94 4.44188 12.955 4.6275C12.9694 4.8025 12.9694 5.01625 12.9694 5.26312V10.2031C13.3256 10.2756 13.5944 10.5906 13.5944 10.9688C13.5944 11.1945 13.5499 11.4181 13.4635 11.6266C13.3771 11.8352 13.2504 12.0247 13.0907 12.1843C12.9311 12.3439 12.7415 12.4705 12.5329 12.5568C12.3243 12.6432 12.1008 12.6876 11.875 12.6875H3.125C2.66916 12.6875 2.23199 12.5064 1.90966 12.1841C1.58733 11.8618 1.40625 11.4246 1.40625 10.9688C1.40625 10.5906 1.675 10.275 2.03125 10.2031ZM3.225 4.30125C3.13672 4.3462 3.06495 4.41797 3.02 4.50625C3.0075 4.52937 2.99063 4.57625 2.98 4.70375C2.96938 4.83625 2.96875 5.01125 2.96875 5.28125V10.1875H5.84625C5.93742 10.1875 6.02659 10.2142 6.10285 10.2641C6.17912 10.3141 6.23916 10.3852 6.27563 10.4688C6.29998 10.5246 6.3401 10.572 6.39107 10.6053C6.44203 10.6386 6.50162 10.6563 6.5625 10.6562H8.4375C8.49838 10.6563 8.55797 10.6386 8.60893 10.6053C8.6599 10.572 8.70002 10.5246 8.72437 10.4688C8.76084 10.3852 8.82088 10.3141 8.89715 10.2641C8.97341 10.2142 9.06258 10.1875 9.15375 10.1875H12.0312V5.28125C12.0312 5.01125 12.0312 4.83625 12.02 4.70375C12.0094 4.57625 11.9919 4.52875 11.98 4.50625C11.935 4.41797 11.8633 4.3462 11.775 4.30125C11.7519 4.28875 11.705 4.27188 11.5775 4.26125C11.3852 4.25066 11.1926 4.2469 11 4.25H4C3.73 4.25 3.555 4.25 3.4225 4.26125C3.295 4.27188 3.2475 4.28937 3.225 4.30125ZM2.35938 11.125C2.43188 11.4812 2.74688 11.75 3.125 11.75H11.875C12.2531 11.75 12.5688 11.4812 12.6406 11.125H9.41313C9.18437 11.4106 8.8325 11.5938 8.4375 11.5938H6.5625C6.37515 11.5937 6.19019 11.5516 6.02132 11.4705C5.85245 11.3893 5.70397 11.2713 5.58687 11.125H2.35938Z" fill="#717070"/>
</svg>
