<svg width="11" height="11" viewBox="0 0 11 11" fill="none" xmlns="http://www.w3.org/2000/svg">
<path d="M5.35055 8.95215L2.7568 10.5146C2.64221 10.5876 2.52242 10.6188 2.39742 10.6084C2.27242 10.598 2.16305 10.5563 2.0693 10.4834C1.97555 10.4105 1.90263 10.3194 1.85055 10.2103C1.79846 10.1011 1.78805 9.97861 1.8193 9.84277L2.5068 6.88965L0.209922 4.90527C0.105756 4.81152 0.0407557 4.70465 0.0149224 4.58465C-0.010911 4.46465 -0.00320266 4.34757 0.0380473 4.2334C0.0792973 4.11923 0.141797 4.02548 0.225547 3.95215C0.309297 3.87881 0.423881 3.83194 0.569297 3.81152L3.60055 3.5459L4.77242 0.764649C4.82451 0.639649 4.90534 0.545898 5.01492 0.483398C5.12451 0.420898 5.23638 0.389648 5.35055 0.389648C5.46471 0.389648 5.57659 0.420898 5.68617 0.483398C5.79576 0.545898 5.87659 0.639649 5.92867 0.764649L7.10055 3.5459L10.1318 3.81152C10.2776 3.83236 10.3922 3.87923 10.4755 3.95215C10.5589 4.02506 10.6214 4.11882 10.663 4.2334C10.7047 4.34798 10.7126 4.46527 10.6868 4.58527C10.661 4.70527 10.5958 4.81194 10.4912 4.90527L8.1943 6.88965L8.8818 9.84277C8.91305 9.97819 8.90263 10.1007 8.85055 10.2103C8.79846 10.3199 8.72555 10.4109 8.6318 10.4834C8.53805 10.5559 8.42867 10.5976 8.30367 10.6084C8.17867 10.6192 8.05888 10.588 7.9443 10.5146L5.35055 8.95215Z" fill="#FFDD00"/>
</svg>
